<svg width="20" height="20" viewBox="0 0 20 20" fill="none" xmlns="http://www.w3.org/2000/svg">
<path d="M5.55649 6.36406C5.46743 7.31406 5.40493 8.99531 5.96587 9.71094C5.96587 9.71094 5.7018 7.86406 8.06899 5.54687C9.02212 4.61406 9.24243 3.34531 8.90962 2.39375C8.72055 1.85469 8.37524 1.40937 8.07524 1.09844C7.90024 0.915625 8.03462 0.614062 8.2893 0.625C9.82993 0.69375 12.3268 1.12187 13.3877 3.78437C13.8534 4.95312 13.8877 6.16094 13.6659 7.38906C13.5252 8.17344 13.0252 9.91719 14.1659 10.1312C14.9799 10.2844 15.3737 9.6375 15.5502 9.17187C15.6237 8.97812 15.8784 8.92969 16.0159 9.08437C17.3909 10.6484 17.5081 12.4906 17.2237 14.0766C16.6737 17.1422 13.569 19.3734 10.4846 19.3734C6.63149 19.3734 3.5643 17.1687 2.76899 13.1781C2.44868 11.5672 2.61118 8.37969 5.09555 6.12969C5.27993 5.96094 5.58149 6.11094 5.55649 6.36406Z" fill="url(#paint0_radial_126_17640)"/>
<path d="M11.8923 12.0969C10.472 10.2687 11.1079 8.18281 11.4564 7.35156C11.5032 7.24219 11.3782 7.13906 11.2798 7.20625C10.6689 7.62187 9.41729 8.6 8.83448 9.97656C8.04542 11.8375 8.10167 12.7484 8.56886 13.8609C8.85011 14.5312 8.52354 14.6734 8.35948 14.6984C8.20011 14.7234 8.05323 14.6172 7.93604 14.5062C7.59898 14.1825 7.35875 13.7713 7.24229 13.3187C7.21729 13.2219 7.09073 13.1953 7.03292 13.275C6.59542 13.8797 6.36886 14.85 6.35792 15.5359C6.32354 17.6562 8.07511 19.375 10.1939 19.375C12.8642 19.375 14.8095 16.4219 13.2751 13.9531C12.8298 13.2344 12.411 12.7641 11.8923 12.0969Z" fill="url(#paint1_radial_126_17640)"/>
<defs>
<radialGradient id="paint0_radial_126_17640" cx="0" cy="0" r="1" gradientTransform="matrix(-11.0292 -0.0478668 -0.0786383 18.0967 9.72145 19.422)" gradientUnits="userSpaceOnUse">
<stop offset="0.314" stop-color="#FF9800"/>
<stop offset="0.662" stop-color="#FF6D00"/>
<stop offset="0.972" stop-color="#F44336"/>
</radialGradient>
<radialGradient id="paint1_radial_126_17640" cx="0" cy="0" r="1" gradientTransform="matrix(-0.11656 11.5395 8.68432 0.0877088 10.3407 8.44662)" gradientUnits="userSpaceOnUse">
<stop offset="0.214" stop-color="#FFF176"/>
<stop offset="0.328" stop-color="#FFF27D"/>
<stop offset="0.487" stop-color="#FFF48F"/>
<stop offset="0.672" stop-color="#FFF7AD"/>
<stop offset="0.793" stop-color="#FFF9C4"/>
<stop offset="0.822" stop-color="#FFF8BD" stop-opacity="0.804"/>
<stop offset="0.863" stop-color="#FFF6AB" stop-opacity="0.529"/>
<stop offset="0.91" stop-color="#FFF38D" stop-opacity="0.209"/>
<stop offset="0.941" stop-color="#FFF176" stop-opacity="0"/>
</radialGradient>
</defs>
</svg>
