<svg width="20" height="20" viewBox="0 0 20 20" fill="none" xmlns="http://www.w3.org/2000/svg">
<g clip-path="url(#clip0_126_17634)">
<path d="M17.0715 2.929C20.9765 6.834 20.9765 13.1662 17.0715 17.0712C13.1665 20.9762 6.83479 20.9762 2.92924 17.0712C-0.975762 13.1662 -0.975762 6.834 2.92924 2.929C6.83424 -0.976 13.1659 -0.976 17.0715 2.929Z" fill="#FFCB4C"/>
<path d="M10.7106 10.7111C8.76952 12.6522 7.25563 13.7133 5.3523 14.9967C4.91841 15.2906 4.28119 16.0683 5.35285 17.1406C7.49563 19.2833 12.6367 19.5 16.0679 16.0689C19.4995 12.6372 19.2834 7.49667 17.1395 5.35333C16.0679 4.28111 15.2895 4.91889 14.9962 5.35333C13.714 7.255 12.6523 8.76944 10.7106 10.7111Z" fill="#65471B"/>
<path d="M6.42432 16.0683C6.42432 16.0683 8.56765 14.9967 11.7821 11.7817C14.9971 8.56722 16.0682 6.42445 16.0682 6.42445C16.0682 6.42445 17.1393 9.63945 13.3893 13.3894C9.63932 17.1394 6.42432 16.0683 6.42432 16.0683Z" fill="white"/>
<path d="M4.59167 14.0189C4.50949 14.102 4.40314 14.1571 4.28781 14.1761C4.17248 14.1952 4.05407 14.1774 3.9495 14.1251C3.84493 14.0728 3.75955 13.9889 3.70556 13.8852C3.65157 13.7815 3.63174 13.6634 3.64889 13.5478C3.66278 13.45 3.95056 11.5311 5.19 9.70222C3.73056 10.1872 2.64056 11.2556 2.62667 11.2694C2.52242 11.3736 2.38107 11.4321 2.23369 11.4321C2.08632 11.432 1.94501 11.3734 1.84084 11.2692C1.73666 11.1649 1.67817 11.0236 1.67822 10.8762C1.67827 10.7288 1.73687 10.5875 1.84111 10.4833C1.92778 10.3967 3.99778 8.35667 6.555 8.35667C6.66498 8.35642 6.77256 8.38886 6.86407 8.44986C6.95558 8.51087 7.0269 8.59768 7.06899 8.69929C7.11107 8.8009 7.12202 8.91272 7.10044 9.02057C7.07886 9.12841 7.02572 9.22741 6.94778 9.305C5.13556 11.1172 4.75167 13.6794 4.74778 13.7044C4.7311 13.8234 4.67633 13.9337 4.59167 14.0189ZM14.0183 4.59111C13.9337 4.67565 13.824 4.7306 13.7056 4.74778C13.6794 4.75167 11.1078 5.145 9.305 6.94778C9.22731 7.02545 9.12833 7.07834 9.02058 7.09977C8.91282 7.12119 8.80114 7.11019 8.69964 7.06815C8.59814 7.02612 8.51138 6.95493 8.45033 6.86359C8.38929 6.77225 8.35669 6.66486 8.35667 6.555C8.35667 3.99722 10.3967 1.92778 10.4833 1.84111C10.588 1.73984 10.7283 1.68374 10.874 1.6849C11.0197 1.68606 11.1591 1.74439 11.2621 1.84732C11.3652 1.95025 11.4237 2.08956 11.4251 2.23522C11.4265 2.38089 11.3706 2.52126 11.2694 2.62611C11.255 2.64056 10.1867 3.73 9.70167 5.18944C11.5306 3.95 13.4489 3.66222 13.5467 3.64833C13.6621 3.63178 13.7798 3.65198 13.8832 3.70607C13.9865 3.76016 14.0702 3.8454 14.1224 3.9497C14.1745 4.054 14.1926 4.17208 14.1739 4.2872C14.1552 4.40232 14.1008 4.50865 14.0183 4.59111Z" fill="#65471B"/>
<path d="M16.723 6.69722C17.0851 6.74126 17.4523 6.71353 17.8038 6.61563C18.1552 6.51774 18.4838 6.35158 18.771 6.12666C19.0582 5.90173 19.2983 5.62244 19.4776 5.30473C19.6568 4.98703 19.7717 4.63712 19.8158 4.275C19.8599 3.91288 19.8322 3.54561 19.7344 3.19417C19.6366 2.84274 19.4705 2.51401 19.2456 2.22676C19.0207 1.93952 18.7415 1.69938 18.4238 1.52006C18.1061 1.34074 17.7562 1.22576 17.3941 1.18167C15.8713 0.996667 11.6113 2.71667 11.5441 3.26833C11.4769 3.82 15.2002 6.51111 16.723 6.69722ZM6.75409 16.6661C6.79812 17.0282 6.7704 17.3955 6.6725 17.7469C6.5746 18.0983 6.40845 18.427 6.18352 18.7142C5.9586 19.0014 5.67931 19.2414 5.3616 19.4207C5.04389 19.5999 4.69399 19.7149 4.33187 19.7589C3.96975 19.803 3.60248 19.7754 3.25104 19.6775C2.8996 19.5797 2.57088 19.4136 2.28363 19.1887C1.99639 18.9639 1.75625 18.6846 1.57693 18.3669C1.39761 18.0492 1.28262 17.6993 1.23853 17.3372C1.05298 15.8139 2.77353 11.5539 3.3252 11.4867C3.87631 11.42 6.56798 15.1433 6.75409 16.6661Z" fill="#64AADD"/>
</g>
<defs>
<clipPath id="clip0_126_17634">
<rect width="20" height="20" fill="white"/>
</clipPath>
</defs>
</svg>
