<svg width="20" height="20" viewBox="0 0 20 20" fill="none" xmlns="http://www.w3.org/2000/svg">
<path d="M13.3335 9.16666V4.99999H15.0002V9.16666H13.3335ZM9.16683 14.9167C8.68072 14.7778 8.28141 14.5069 7.96891 14.1042C7.65641 13.7014 7.50016 13.2361 7.50016 12.7083V4.99999H9.16683V14.9167ZM9.79183 18.3333C8.34739 18.3333 7.11822 17.8264 6.10433 16.8125C5.09044 15.7986 4.5835 14.5694 4.5835 13.125V5.41666C4.5835 4.37499 4.94808 3.48957 5.67725 2.76041C6.40641 2.03124 7.29183 1.66666 8.3335 1.66666C9.37516 1.66666 10.2606 2.03124 10.9897 2.76041C11.7189 3.48957 12.0835 4.37499 12.0835 5.41666V11.6667H10.4168V5.41666C10.4029 4.83332 10.1981 4.34027 9.80225 3.93749C9.40641 3.53471 8.91683 3.33332 8.3335 3.33332C7.75016 3.33332 7.25711 3.53471 6.85433 3.93749C6.45155 4.34027 6.25016 4.83332 6.25016 5.41666V13.125C6.23627 14.1111 6.57655 14.9479 7.271 15.6354C7.96544 16.3229 8.80572 16.6667 9.79183 16.6667C10.1391 16.6667 10.4689 16.6215 10.7814 16.5312C11.0939 16.441 11.3891 16.3055 11.6668 16.125V17.9792C11.3752 18.0903 11.0731 18.1771 10.7606 18.2396C10.4481 18.3021 10.1252 18.3333 9.79183 18.3333ZM13.3335 17.5V15H10.8335V13.3333H13.3335V10.8333H15.0002V13.3333H17.5002V15H15.0002V17.5H13.3335Z" fill="#E3E3E3"/>
</svg>
