<svg width="20" height="20" viewBox="0 0 20 20" fill="none" xmlns="http://www.w3.org/2000/svg">
<path d="M3 12V10.5C4.04167 10.5 5.01576 10.3028 5.92229 9.90833C6.82882 9.51389 7.62118 8.97757 8.29938 8.29938C8.97757 7.62118 9.51389 6.82882 9.90833 5.92229C10.3028 5.01576 10.5 4.04167 10.5 3H12C12 4.25 11.7652 5.41945 11.2956 6.50833C10.826 7.59708 10.183 8.54979 9.36646 9.36646C8.54979 10.183 7.59708 10.826 6.50833 11.2956C5.41944 11.7652 4.25 12 3 12ZM3 8.5V7C4.10667 7 5.05 6.61 5.83 5.83C6.61 5.05 7 4.10667 7 3H8.5C8.5 4.52778 7.96528 5.82639 6.89583 6.89583C5.82639 7.96528 4.52778 8.5 3 8.5ZM3 5.5V3H5.5C5.5 3.69444 5.25694 4.28472 4.77083 4.77083C4.28472 5.25694 3.69444 5.5 3 5.5ZM8 17C8 15.75 8.23479 14.5806 8.70438 13.4917C9.17396 12.4029 9.81701 11.4502 10.6335 10.6335C11.4502 9.81701 12.4029 9.17396 13.4917 8.70438C14.5806 8.23479 15.75 8 17 8V9.5C15.9583 9.5 14.9842 9.69722 14.0777 10.0917C13.1712 10.4861 12.3788 11.0224 11.7006 11.7006C11.0224 12.3788 10.4861 13.1712 10.0917 14.0777C9.69722 14.9842 9.5 15.9583 9.5 17H8ZM11.5 17C11.5 15.4722 12.0347 14.1736 13.1042 13.1042C14.1736 12.0347 15.4722 11.5 17 11.5V13C15.8933 13 14.95 13.39 14.17 14.17C13.39 14.95 13 15.8933 13 17H11.5ZM14.5 17C14.5 16.3056 14.7431 15.7153 15.2292 15.2292C15.7153 14.7431 16.3056 14.5 17 14.5V17H14.5Z" fill="#E3E3E3"/>
</svg>
