<svg width="9" height="12" viewBox="0 0 9 12" fill="none" xmlns="http://www.w3.org/2000/svg">
<path d="M0.000266314 11.6367V0.000354767H4.45481C5.29572 0.000354767 5.99458 0.13293 6.5514 0.398082C7.11201 0.659446 7.53057 1.0174 7.80709 1.47195C8.08739 1.92649 8.22754 2.44164 8.22754 3.0174C8.22754 3.49089 8.13663 3.89619 7.95481 4.23331C7.77299 4.56664 7.52868 4.83748 7.22186 5.04581C6.91504 5.25414 6.57224 5.40376 6.19345 5.49467V5.60831C6.60633 5.63104 7.00216 5.75793 7.38095 5.98899C7.76352 6.21626 8.07602 6.53823 8.31845 6.9549C8.56087 7.37157 8.68209 7.87535 8.68209 8.46626C8.68209 9.06854 8.53625 9.6102 8.24459 10.0913C7.95292 10.5685 7.51352 10.9454 6.9264 11.2219C6.33928 11.4985 5.60065 11.6367 4.71049 11.6367H0.000266314ZM2.10822 9.87536H4.37527C5.14042 9.87536 5.69155 9.72952 6.02868 9.43786C6.36958 9.1424 6.54004 8.76361 6.54004 8.30149C6.54004 7.95679 6.45481 7.64619 6.28436 7.36967C6.1139 7.08937 5.87148 6.86967 5.55708 6.71058C5.24269 6.5477 4.86769 6.46626 4.43208 6.46626H2.10822V9.87536ZM2.10822 4.94922H4.19345C4.55708 4.94922 4.88474 4.88293 5.1764 4.75035C5.46807 4.61399 5.69724 4.4227 5.8639 4.17649C6.03436 3.92649 6.11958 3.63104 6.11958 3.29013C6.11958 2.83937 5.96049 2.46816 5.64231 2.17649C5.32792 1.88482 4.86012 1.73899 4.2389 1.73899H2.10822V4.94922Z" fill="white"/>
</svg>
