<svg width="20" height="20" viewBox="0 0 20 20" fill="none" xmlns="http://www.w3.org/2000/svg">
<path d="M6 15H7.5V13.25H9.25V11.75H7.5V10H6V11.75H4.25V13.25H6V15ZM10.75 12H15.75V11H10.75V12ZM10.75 14.5H14V13.5H10.75V14.5ZM3.5 18C3.0875 18 2.73438 17.8531 2.44063 17.5594C2.14688 17.2656 2 16.9125 2 16.5V7.5C2 7.0875 2.14688 6.73438 2.44063 6.44063C2.73438 6.14688 3.0875 6 3.5 6H8V3.5C8 3.0875 8.14687 2.73438 8.44063 2.44063C8.73438 2.14688 9.0875 2 9.5 2H10.5C10.9125 2 11.2656 2.14688 11.5594 2.44063C11.8531 2.73438 12 3.0875 12 3.5V6H16.5C16.9125 6 17.2656 6.14688 17.5594 6.44063C17.8531 6.73438 18 7.0875 18 7.5V16.5C18 16.9125 17.8531 17.2656 17.5594 17.5594C17.2656 17.8531 16.9125 18 16.5 18H3.5ZM3.5 16.5H16.5V7.5H12C12 7.91667 11.8531 8.27083 11.5594 8.5625C11.2656 8.85417 10.9125 9 10.5 9H9.5C9.0875 9 8.73438 8.85312 8.44063 8.55937C8.14687 8.26562 8 7.9125 8 7.5H3.5V16.5ZM9.5 7.5H10.5V3.5H9.5V7.5Z" fill="#E3E3E3"/>
</svg>
