<svg width="21" height="21" viewBox="0 0 21 21" fill="none" xmlns="http://www.w3.org/2000/svg">
<path d="M9.5835 14.25H11.0835V11H14.3335V9.5H11.0835V6.25H9.5835V9.5H6.3335V11H9.5835V14.25ZM10.3393 18.25C9.23822 18.25 8.20155 18.0417 7.22933 17.625C6.25711 17.2083 5.40641 16.6354 4.67725 15.9062C3.94808 15.1771 3.37516 14.3267 2.9585 13.355C2.54183 12.3833 2.3335 11.3451 2.3335 10.2404C2.3335 9.13569 2.54183 8.10069 2.9585 7.13542C3.37516 6.17014 3.94808 5.32292 4.67725 4.59375C5.40641 3.86458 6.25683 3.29167 7.2285 2.875C8.20016 2.45833 9.23836 2.25 10.3431 2.25C11.4478 2.25 12.4828 2.45833 13.4481 2.875C14.4134 3.29167 15.2606 3.86458 15.9897 4.59375C16.7189 5.32292 17.2918 6.17167 17.7085 7.14C18.1252 8.10847 18.3335 9.14319 18.3335 10.2442C18.3335 11.3453 18.1252 12.3819 17.7085 13.3542C17.2918 14.3264 16.7189 15.1771 15.9897 15.9062C15.2606 16.6354 14.4118 17.2083 13.4435 17.625C12.475 18.0417 11.4403 18.25 10.3393 18.25ZM10.3335 16.75C12.1391 16.75 13.6738 16.1181 14.9377 14.8542C16.2016 13.5903 16.8335 12.0556 16.8335 10.25C16.8335 8.44444 16.2016 6.90972 14.9377 5.64583C13.6738 4.38194 12.1391 3.75 10.3335 3.75C8.52794 3.75 6.99322 4.38194 5.72933 5.64583C4.46544 6.90972 3.8335 8.44444 3.8335 10.25C3.8335 12.0556 4.46544 13.5903 5.72933 14.8542C6.99322 16.1181 8.52794 16.75 10.3335 16.75Z" fill="#E3E3E3"/>
</svg>
