<svg width="20" height="20" viewBox="0 0 20 20" fill="none" xmlns="http://www.w3.org/2000/svg">
<path d="M5.55625 6.36411C5.46718 7.31411 5.40468 8.99536 5.96562 9.71098C5.96562 9.71098 5.70156 7.86411 8.06875 5.54692C9.02187 4.61411 9.24218 3.34536 8.90937 2.3938C8.72031 1.85473 8.375 1.40942 8.075 1.09848C7.9 0.91567 8.03437 0.614108 8.28906 0.625045C9.82968 0.693795 12.3266 1.12192 13.3875 3.78442C13.8531 4.95317 13.8875 6.16098 13.6656 7.38911C13.525 8.17348 13.025 9.91723 14.1656 10.1313C14.9797 10.2844 15.3734 9.63754 15.55 9.17192C15.6234 8.97817 15.8781 8.92973 16.0156 9.08442C17.3906 10.6485 17.5078 12.4907 17.2234 14.0766C16.6734 17.1422 13.5687 19.3735 10.4844 19.3735C6.63125 19.3735 3.56406 17.1688 2.76875 13.1782C2.44843 11.5672 2.61093 8.37973 5.09531 6.12973C5.27968 5.96098 5.58125 6.11098 5.55625 6.36411Z" fill="url(#paint0_radial_126_17640)"/>
<path d="M11.8922 12.0969C10.4719 10.2688 11.1078 8.18286 11.4562 7.35161C11.5031 7.24224 11.3781 7.13911 11.2797 7.2063C10.6687 7.62192 9.41717 8.60005 8.83436 9.97661C8.0453 11.8375 8.10155 12.7485 8.56874 13.861C8.84999 14.5313 8.52342 14.6735 8.35936 14.6985C8.19999 14.7235 8.05311 14.6172 7.93592 14.5063C7.59886 14.1826 7.35863 13.7714 7.24217 13.3188C7.21717 13.2219 7.09061 13.1954 7.0328 13.275C6.5953 13.8797 6.36873 14.85 6.3578 15.536C6.32342 17.6563 8.07498 19.375 10.1937 19.375C12.864 19.375 14.8094 16.4219 13.275 13.9532C12.8297 13.2344 12.4109 12.7641 11.8922 12.0969Z" fill="url(#paint1_radial_126_17640)"/>
<defs>
<radialGradient id="paint0_radial_126_17640" cx="0" cy="0" r="1" gradientTransform="matrix(-11.0292 -0.0478668 -0.0786383 18.0967 9.72121 19.4221)" gradientUnits="userSpaceOnUse">
<stop offset="0.314" stop-color="#FF9800"/>
<stop offset="0.662" stop-color="#FF6D00"/>
<stop offset="0.972" stop-color="#F44336"/>
</radialGradient>
<radialGradient id="paint1_radial_126_17640" cx="0" cy="0" r="1" gradientTransform="matrix(-0.11656 11.5395 8.68432 0.0877088 10.3406 8.44667)" gradientUnits="userSpaceOnUse">
<stop offset="0.214" stop-color="#FFF176"/>
<stop offset="0.328" stop-color="#FFF27D"/>
<stop offset="0.487" stop-color="#FFF48F"/>
<stop offset="0.672" stop-color="#FFF7AD"/>
<stop offset="0.793" stop-color="#FFF9C4"/>
<stop offset="0.822" stop-color="#FFF8BD" stop-opacity="0.804"/>
<stop offset="0.863" stop-color="#FFF6AB" stop-opacity="0.529"/>
<stop offset="0.91" stop-color="#FFF38D" stop-opacity="0.209"/>
<stop offset="0.941" stop-color="#FFF176" stop-opacity="0"/>
</radialGradient>
</defs>
</svg>
