<svg width="20" height="20" viewBox="0 0 20 20" fill="none" xmlns="http://www.w3.org/2000/svg">
<path d="M5.99906 16.4999V7.49987C5.99906 7.0821 6.14489 6.72765 6.43656 6.43654C6.72823 6.14543 7.08239 5.99987 7.49906 5.99987H16.4991C16.9116 5.99987 17.2647 6.14675 17.5584 6.4405C17.8522 6.73425 17.9991 7.08737 17.9991 7.49987V13.9999L13.9991 17.9999H7.49906C7.08656 17.9999 6.73343 17.853 6.43968 17.5593C6.14593 17.2655 5.99906 16.9124 5.99906 16.4999ZM2.04073 5.35404C1.97128 4.95126 2.05809 4.57626 2.30114 4.22904C2.5442 3.88182 2.86712 3.67348 3.26989 3.60404L12.1241 2.02071C12.5268 1.95126 12.8984 2.03807 13.2386 2.28112C13.5789 2.52418 13.7838 2.8471 13.8532 3.24987L14.0824 4.49987H12.5616L12.3741 3.49987L3.51989 5.08321L4.49906 10.5624V15.3124C4.27684 15.2152 4.08587 15.0688 3.92614 14.8732C3.76642 14.6777 3.66573 14.456 3.62406 14.2082L2.04073 5.35404ZM7.49906 7.49987V16.4999H12.9991V12.9999H16.4991V7.49987H7.49906Z" fill="#E3E3E3"/>
</svg>
