<svg width="20" height="20" viewBox="0 0 20 20" fill="none" xmlns="http://www.w3.org/2000/svg">
<path d="M4.99984 11.6667H14.9998V10H4.99984V11.6667ZM4.99984 9.16666H14.9998V7.5H4.99984V9.16666ZM4.99984 6.66666H14.9998V5H4.99984V6.66666ZM18.3332 18.3333L14.9998 15H3.33317C2.87484 15 2.48248 14.8368 2.15609 14.5104C1.8297 14.184 1.6665 13.7917 1.6665 13.3333V3.33333C1.6665 2.875 1.8297 2.48264 2.15609 2.15625C2.48248 1.82986 2.87484 1.66666 3.33317 1.66666H16.6665C17.1248 1.66666 17.5172 1.82986 17.8436 2.15625C18.17 2.48264 18.3332 2.875 18.3332 3.33333V18.3333ZM3.33317 13.3333H15.7082L16.6665 14.2708V3.33333H3.33317V13.3333Z" fill="#E0E1DD"/>
</svg>
