<svg width="19" height="12" viewBox="0 0 19 12" fill="none" xmlns="http://www.w3.org/2000/svg">
<path d="M2.9771 11.8413C2.42407 11.8413 1.92217 11.7371 1.47141 11.5288C1.02066 11.3166 0.662701 11.0117 0.39755 10.614C0.132398 10.2125 -0.000177503 9.72763 -0.000177503 9.15945C-0.000177503 8.65945 0.0983073 8.25414 0.295277 7.94354C0.492247 7.62914 0.755504 7.38293 1.08505 7.2049C1.4146 7.02687 1.77823 6.89429 2.17596 6.80717C2.57747 6.71626 2.98088 6.64429 3.38619 6.59126C3.91649 6.52308 4.34641 6.47195 4.67596 6.43785C5.00929 6.39998 5.25172 6.33748 5.40323 6.25035C5.55853 6.16323 5.63619 6.01172 5.63619 5.79581V5.75035C5.63619 5.18975 5.48278 4.75414 5.17596 4.44354C4.87293 4.13293 4.4127 3.97763 3.79528 3.97763C3.15513 3.97763 2.65323 4.11778 2.2896 4.39808C1.92596 4.67839 1.67028 4.97763 1.52255 5.29581L0.249822 4.84126C0.477095 4.31096 0.780126 3.89808 1.15891 3.60263C1.54149 3.30339 1.95816 3.09505 2.40891 2.97763C2.86346 2.85642 3.31043 2.79581 3.74982 2.79581C4.03013 2.79581 4.3521 2.8299 4.71573 2.89808C5.08316 2.96248 5.43732 3.09695 5.77823 3.30149C6.12293 3.50604 6.40891 3.81475 6.63619 4.22763C6.86346 4.64051 6.9771 5.19354 6.9771 5.88672V11.6367H5.63619V10.4549H5.568C5.4771 10.6443 5.32558 10.8469 5.11346 11.0629C4.90134 11.2788 4.61914 11.4625 4.26687 11.614C3.9146 11.7655 3.48467 11.8413 2.9771 11.8413ZM3.18164 10.6367C3.71194 10.6367 4.15891 10.5326 4.52255 10.3242C4.88997 10.1159 5.16649 9.84695 5.3521 9.5174C5.54149 9.18786 5.63619 8.84126 5.63619 8.47763V7.25035C5.57937 7.31854 5.45437 7.38104 5.26119 7.43785C5.07179 7.49089 4.8521 7.53823 4.6021 7.5799C4.35588 7.61778 4.11535 7.65187 3.8805 7.68217C3.64944 7.70869 3.46194 7.73142 3.318 7.75036C2.96952 7.79581 2.64376 7.86967 2.34073 7.97195C2.04149 8.07043 1.79906 8.22005 1.61346 8.42081C1.43164 8.61778 1.34073 8.88672 1.34073 9.22763C1.34073 9.69354 1.51308 10.0458 1.85778 10.2844C2.20626 10.5193 2.64755 10.6367 3.18164 10.6367ZM14.0586 0.000354767V9.34126L17.6495 5.73899L18.5359 6.61399L13.4336 11.7049L8.34272 6.61399L9.20636 5.73899L12.8086 9.34126V0.000354767H14.0586Z" fill="white"/>
</svg>
