<svg width="20" height="20" viewBox="0 0 20 20" fill="none" xmlns="http://www.w3.org/2000/svg">
<path d="M15 13V11.5H13.5V10H15V8.5H16.5V10H18V11.5H16.5V13H15ZM12.5 18C10.8333 17.3472 9.5 16.2917 8.5 14.8333C7.5 13.375 7 11.75 7 9.95833C7 8.72222 7.25347 7.54514 7.76042 6.42708C8.26736 5.30903 8.97917 4.33333 9.89583 3.5H7V2H12.5V7.5H11V4.5C10.2083 5.18056 9.59375 5.99653 9.15625 6.94792C8.71875 7.89931 8.5 8.90278 8.5 9.95833C8.5 11.3283 8.85764 12.5875 9.57292 13.7358C10.2882 14.8842 11.2639 15.7639 12.5 16.375V18Z" fill="#E3E3E3"/>
</svg>
