<svg width="20" height="20" viewBox="0 0 20 20" fill="none" xmlns="http://www.w3.org/2000/svg">
<path d="M5.00004 15.875L6.64587 15.2084C6.50698 14.8056 6.37851 14.3959 6.26046 13.9792C6.1424 13.5625 6.04865 13.1459 5.97921 12.7292L5.00004 13.3959V15.875ZM8.33337 15H11.6667C11.9167 14.4445 12.1181 13.7674 12.2709 12.9688C12.4237 12.1702 12.5 11.3542 12.5 10.5209C12.5 9.14587 12.2709 7.84379 11.8125 6.61462C11.3542 5.38546 10.75 4.43754 10 3.77087C9.25004 4.43754 8.64587 5.38546 8.18754 6.61462C7.72921 7.84379 7.50004 9.14587 7.50004 10.5209C7.50004 11.3542 7.57643 12.1702 7.72921 12.9688C7.88198 13.7674 8.08337 14.4445 8.33337 15ZM10 10.8334C9.54171 10.8334 9.14935 10.6702 8.82296 10.3438C8.49657 10.0174 8.33337 9.62504 8.33337 9.16671C8.33337 8.70837 8.49657 8.31601 8.82296 7.98962C9.14935 7.66323 9.54171 7.50004 10 7.50004C10.4584 7.50004 10.8507 7.66323 11.1771 7.98962C11.5035 8.31601 11.6667 8.70837 11.6667 9.16671C11.6667 9.62504 11.5035 10.0174 11.1771 10.3438C10.8507 10.6702 10.4584 10.8334 10 10.8334ZM15 15.875V13.3959L14.0209 12.7292C13.9514 13.1459 13.8577 13.5625 13.7396 13.9792C13.6216 14.3959 13.4931 14.8056 13.3542 15.2084L15 15.875ZM10 1.64587C11.375 2.64587 12.4132 3.91671 13.1146 5.45837C13.816 7.00004 14.1667 8.79171 14.1667 10.8334L15.9167 12C16.1528 12.1528 16.3368 12.3542 16.4688 12.6042C16.6007 12.8542 16.6667 13.1181 16.6667 13.3959V18.3334L12.5209 16.6667H7.47921L3.33337 18.3334V13.3959C3.33337 13.1181 3.39935 12.8542 3.53129 12.6042C3.66324 12.3542 3.84726 12.1528 4.08337 12L5.83337 10.8334C5.83337 8.79171 6.18407 7.00004 6.88546 5.45837C7.58685 3.91671 8.62504 2.64587 10 1.64587Z" fill="#E3E3E3"/>
</svg>
