<svg width="20" height="20" viewBox="0 0 20 20" fill="none" xmlns="http://www.w3.org/2000/svg">
<path d="M4.5 11.5V10H6V11.5H4.5ZM3 10V8.5H4.5V10H3ZM10 4.5V3H11.5V4.5H10ZM4 6.5H6.5V4H4V6.5ZM3 7.5V3H7.5V7.5H3ZM4 16H6.5V13.5H4V16ZM3 17V12.5H7.5V17H3ZM13.5 6.5H16V4H13.5V6.5ZM12.5 7.5V3H17V7.5H12.5ZM7.5 11.5V10H6V8.5H9V11.5H7.5ZM8.5 7.5V4.5H10V6H11.5V7.5H8.5ZM4.75 5.75V4.75H5.75V5.75H4.75ZM4.75 15.25V14.25H5.75V15.25H4.75ZM14.25 5.75V4.75H15.25V5.75H14.25ZM12.75 17V14.25H10V12.75H12.75V10H14.25V12.75H17V14.25H14.25V17H12.75Z" fill="#E3E3E3"/>
</svg>
