<svg width="20" height="20" viewBox="0 0 20 20" fill="none" xmlns="http://www.w3.org/2000/svg">
<path d="M5 13V9.25H12.75V13H5ZM3.5 16C3.0875 16 2.73438 15.8531 2.44063 15.5592C2.14688 15.2653 2 14.9119 2 14.4992V5.49417C2 5.08139 2.14688 4.72917 2.44063 4.4375C2.73438 4.14583 3.0875 4 3.5 4H16.5C16.9125 4 17.2656 4.14688 17.5594 4.44063C17.8531 4.73438 18 5.0875 18 5.5V10H16.5V5.5H3.5V14.5H11V16H3.5ZM13.75 10V8.25H7.08333V7H15V10H13.75ZM15.25 18V15.75H13V14.25H15.25V12H16.75V14.25H19V15.75H16.75V18H15.25Z" fill="#E3E3E3"/>
</svg>
