<svg width="11" height="12" viewBox="0 0 11 12" fill="none" xmlns="http://www.w3.org/2000/svg">
<path d="M7.77273 3.06863C7.70455 2.49287 7.42803 2.0459 6.94318 1.72772C6.45833 1.40953 5.86364 1.25044 5.15909 1.25044C4.64394 1.25044 4.19318 1.33378 3.80682 1.50044C3.42424 1.66711 3.125 1.89628 2.90909 2.18794C2.69697 2.47961 2.59091 2.81105 2.59091 3.18226C2.59091 3.49287 2.66477 3.75991 2.8125 3.9834C2.96402 4.2031 3.1572 4.38681 3.39205 4.53453C3.62689 4.67847 3.87311 4.79779 4.13068 4.89249C4.38826 4.9834 4.625 5.05726 4.84091 5.11408L6.02273 5.43226C6.32576 5.51181 6.66288 5.62166 7.03409 5.76181C7.40909 5.90196 7.76705 6.09325 8.10795 6.33567C8.45265 6.57431 8.73674 6.88113 8.96023 7.25613C9.18371 7.63113 9.29545 8.09135 9.29545 8.63681C9.29545 9.2656 9.13068 9.83378 8.80114 10.3414C8.47538 10.8489 7.99811 11.2523 7.36932 11.5516C6.74432 11.8508 5.98485 12.0004 5.09091 12.0004C4.25758 12.0004 3.53598 11.866 2.92614 11.597C2.32008 11.3281 1.8428 10.9531 1.49432 10.472C1.14962 9.99097 0.954545 9.43226 0.909091 8.7959H2.36364C2.40152 9.23529 2.54924 9.59893 2.80682 9.88681C3.06818 10.1709 3.39773 10.383 3.79545 10.5232C4.19697 10.6595 4.62879 10.7277 5.09091 10.7277C5.62879 10.7277 6.11174 10.6406 6.53977 10.4664C6.9678 10.2883 7.30682 10.0421 7.55682 9.72772C7.80682 9.40953 7.93182 9.03832 7.93182 8.61408C7.93182 8.22772 7.82386 7.91332 7.60795 7.6709C7.39205 7.42847 7.10795 7.2315 6.75568 7.07999C6.40341 6.92847 6.02273 6.7959 5.61364 6.68226L4.18182 6.27317C3.27273 6.01181 2.55303 5.6387 2.02273 5.15385C1.49242 4.669 1.22727 4.03453 1.22727 3.25044C1.22727 2.59893 1.40341 2.03075 1.75568 1.5459C2.11174 1.05726 2.58902 0.678474 3.1875 0.409534C3.78977 0.136807 4.46212 0.000443459 5.20455 0.000443459C5.95455 0.000443459 6.62121 0.134913 7.20455 0.403852C7.78788 0.669004 8.25 1.03264 8.59091 1.49476C8.93561 1.95688 9.11742 2.4815 9.13636 3.06863H7.77273Z" fill="white"/>
<path d="M0 6.55726H10.2045V7.64817H0V6.55726Z" fill="white"/>
</svg>
