<svg width="20" height="20" viewBox="0 0 20 20" fill="none" xmlns="http://www.w3.org/2000/svg">
<path d="M8.04907 0C3.61684 0 0 3.61684 0 8.04907C0 12.4813 3.61684 16.0981 8.04907 16.0981C9.86603 16.0981 11.5401 15.4837 12.89 14.461L18.0887 19.6586C18.191 19.7652 18.3136 19.8503 18.4492 19.9089C18.5847 19.9675 18.7307 19.9984 18.8784 19.9999C19.0261 20.0014 19.1726 19.9735 19.3093 19.9176C19.4461 19.8618 19.5703 19.7792 19.6748 19.6748C19.7792 19.5703 19.8618 19.4461 19.9176 19.3093C19.9735 19.1726 20.0014 19.0261 19.9999 18.8784C19.9984 18.7307 19.9675 18.5847 19.9089 18.4492C19.8503 18.3136 19.7652 18.191 19.6586 18.0887L14.461 12.89C15.4837 11.5401 16.0981 9.86603 16.0981 8.04907C16.0981 3.61684 12.4813 0 8.04907 0ZM8.04907 2.22043C11.2813 2.22043 13.8777 4.81685 13.8777 8.04907C13.8777 9.601 13.2749 11.0026 12.2948 12.0443C12.1994 12.1134 12.1156 12.1972 12.0465 12.2926C11.0045 13.274 9.60211 13.8777 8.04907 13.8777C4.81685 13.8777 2.22043 11.2813 2.22043 8.04907C2.22043 4.81685 4.81685 2.22043 8.04907 2.22043Z" fill="#0E7AF6"/>
</svg>
