<svg width="20" height="20" viewBox="0 0 20 20" fill="none" xmlns="http://www.w3.org/2000/svg">
<path d="M14.4167 13.0002C14.8194 13.0002 15.2118 12.8925 15.5938 12.6772C15.9757 12.462 16.3194 12.1599 16.625 11.771V9.72933C16.2917 9.771 15.9792 9.82308 15.6875 9.88558C15.3958 9.94808 15.125 10.021 14.875 10.1043C14.2639 10.2988 13.8056 10.5418 13.5 10.8335C13.1944 11.1252 13.0417 11.4585 13.0417 11.8335C13.0417 12.1946 13.1701 12.4793 13.4271 12.6877C13.684 12.896 14.0139 13.0002 14.4167 13.0002ZM14 14.2918C13.25 14.2918 12.6493 14.0766 12.1979 13.646C11.7465 13.2154 11.5208 12.6252 11.5208 11.8752C11.5208 11.1668 11.7465 10.5904 12.1979 10.146C12.6493 9.70155 13.3542 9.34739 14.3125 9.0835C14.6319 9.00016 14.9861 8.9203 15.375 8.84391C15.7639 8.76752 16.1806 8.70155 16.625 8.646C16.5833 8.03488 16.4201 7.58697 16.1354 7.30225C15.8507 7.01752 15.4167 6.87516 14.8333 6.87516C14.4722 6.87516 14.125 6.93766 13.7917 7.06266C13.4583 7.18766 13.0417 7.40989 12.5417 7.72933L11.8542 6.60433C12.3264 6.24322 12.8542 5.96197 13.4375 5.76058C14.0208 5.55919 14.5972 5.4585 15.1667 5.4585C16.125 5.4585 16.8576 5.75711 17.3646 6.35433C17.8715 6.95155 18.125 7.81266 18.125 8.93766V14.1043H16.8958L16.75 13.1043C16.3611 13.4793 15.9306 13.771 15.4583 13.9793C14.9861 14.1877 14.5 14.2918 14 14.2918ZM2.5 14.5418C2.375 14.3752 2.25 14.2259 2.125 14.0939C2 13.962 1.875 13.8543 1.75 13.771C2.77778 13.3127 3.59375 12.7467 4.19792 12.0731C4.80208 11.3995 5.23611 10.4585 5.5 9.25016H2.0625V8.25016H5.6875C5.74306 7.84738 5.78125 7.42377 5.80208 6.97933C5.82292 6.53489 5.83333 6.05572 5.83333 5.54183H6.89583C6.89583 6.04183 6.88542 6.51752 6.86458 6.96891C6.84375 7.4203 6.80556 7.84738 6.75 8.25016H10.6875V9.25016H7.10417C7.47917 10.3613 7.99306 11.2953 8.64583 12.0522C9.29861 12.8092 10.0486 13.3474 10.8958 13.6668C10.7431 13.8196 10.6076 13.9654 10.4896 14.1043C10.3715 14.2432 10.2778 14.3891 10.2083 14.5418C9.34722 14.1668 8.59375 13.5974 7.94792 12.8335C7.30208 12.0696 6.77778 11.1599 6.375 10.1043C6.05556 11.2293 5.57639 12.1391 4.9375 12.8335C4.29861 13.5279 3.48611 14.0974 2.5 14.5418Z" fill="#E3E3E3"/>
</svg>
