<svg width="20" height="20" viewBox="0 0 20 20" fill="none" xmlns="http://www.w3.org/2000/svg">
<path d="M5.00016 15.8751L6.646 15.2084C6.50711 14.8056 6.37863 14.3959 6.26058 13.9792C6.14252 13.5626 6.04877 13.1459 5.97933 12.7292L5.00016 13.3959V15.8751ZM8.3335 15.0001H11.6668C11.9168 14.4445 12.1182 13.7674 12.271 12.9688C12.4238 12.1702 12.5002 11.3542 12.5002 10.5209C12.5002 9.14591 12.271 7.84383 11.8127 6.61466C11.3543 5.38549 10.7502 4.43758 10.0002 3.77091C9.25016 4.43758 8.646 5.38549 8.18766 6.61466C7.72933 7.84383 7.50016 9.14591 7.50016 10.5209C7.50016 11.3542 7.57655 12.1702 7.72933 12.9688C7.88211 13.7674 8.0835 14.4445 8.3335 15.0001ZM10.0002 10.8334C9.54183 10.8334 9.14947 10.6702 8.82308 10.3438C8.49669 10.0174 8.3335 9.62508 8.3335 9.16674C8.3335 8.70841 8.49669 8.31605 8.82308 7.98966C9.14947 7.66327 9.54183 7.50008 10.0002 7.50008C10.4585 7.50008 10.8509 7.66327 11.1772 7.98966C11.5036 8.31605 11.6668 8.70841 11.6668 9.16674C11.6668 9.62508 11.5036 10.0174 11.1772 10.3438C10.8509 10.6702 10.4585 10.8334 10.0002 10.8334ZM15.0002 15.8751V13.3959L14.021 12.7292C13.9516 13.1459 13.8578 13.5626 13.7397 13.9792C13.6217 14.3959 13.4932 14.8056 13.3543 15.2084L15.0002 15.8751ZM10.0002 1.64591C11.3752 2.64591 12.4134 3.91675 13.1147 5.45841C13.8161 7.00008 14.1668 8.79174 14.1668 10.8334L15.9168 12.0001C16.1529 12.1529 16.337 12.3542 16.4689 12.6042C16.6009 12.8542 16.6668 13.1181 16.6668 13.3959V18.3334L12.521 16.6667H7.47933L3.3335 18.3334V13.3959C3.3335 13.1181 3.39947 12.8542 3.53141 12.6042C3.66336 12.3542 3.84738 12.1529 4.0835 12.0001L5.8335 10.8334C5.8335 8.79174 6.18419 7.00008 6.88558 5.45841C7.58697 3.91675 8.62516 2.64591 10.0002 1.64591Z" fill="#E0E1DD"/>
</svg>
