<svg width="12" height="16" viewBox="0 0 12 16" fill="none" xmlns="http://www.w3.org/2000/svg">
<path d="M9.04545 0.000354767H10.4545V7.7049C10.4545 8.50036 10.267 9.21058 9.89205 9.83558C9.52083 10.4568 8.99621 10.9473 8.31818 11.3072C7.64015 11.6632 6.8447 11.8413 5.93182 11.8413C5.01894 11.8413 4.22348 11.6632 3.54545 11.3072C2.86742 10.9473 2.34091 10.4568 1.96591 9.83558C1.5947 9.21058 1.40909 8.50036 1.40909 7.7049V0.000354767H2.81818V7.59126C2.81818 8.15945 2.94318 8.66513 3.19318 9.10831C3.44318 9.5477 3.79924 9.89429 4.26136 10.1481C4.72727 10.3981 5.28409 10.5231 5.93182 10.5231C6.57955 10.5231 7.13636 10.3981 7.60227 10.1481C8.06818 9.89429 8.42424 9.5477 8.67045 9.10831C8.92045 8.66513 9.04545 8.15945 9.04545 7.59126V0.000354767Z" fill="white"/>
<path d="M0 14.8185H11.8636V15.9094H0V14.8185Z" fill="white"/>
</svg>
