<svg width="20" height="20" viewBox="0 0 20 20" fill="none" xmlns="http://www.w3.org/2000/svg">
<path d="M10 13.3334C11.0417 13.3334 11.9271 12.9688 12.6563 12.2396C13.3855 11.5105 13.75 10.625 13.75 9.58337C13.75 8.54171 13.3855 7.65629 12.6563 6.92712C11.9271 6.19796 11.0417 5.83337 10 5.83337C8.95837 5.83337 8.07296 6.19796 7.34379 6.92712C6.61462 7.65629 6.25004 8.54171 6.25004 9.58337C6.25004 10.625 6.61462 11.5105 7.34379 12.2396C8.07296 12.9688 8.95837 13.3334 10 13.3334ZM10 11.8334C9.37504 11.8334 8.84379 11.6146 8.40629 11.1771C7.96879 10.7396 7.75004 10.2084 7.75004 9.58337C7.75004 8.95837 7.96879 8.42712 8.40629 7.98962C8.84379 7.55212 9.37504 7.33337 10 7.33337C10.625 7.33337 11.1563 7.55212 11.5938 7.98962C12.0313 8.42712 12.25 8.95837 12.25 9.58337C12.25 10.2084 12.0313 10.7396 11.5938 11.1771C11.1563 11.6146 10.625 11.8334 10 11.8334ZM10 15.8334C7.97226 15.8334 6.12504 15.2674 4.45837 14.1355C2.79171 13.0035 1.58337 11.4862 0.833374 9.58337C1.58337 7.6806 2.79171 6.16324 4.45837 5.03129C6.12504 3.89935 7.97226 3.33337 10 3.33337C12.0278 3.33337 13.875 3.89935 15.5417 5.03129C17.2084 6.16324 18.4167 7.6806 19.1667 9.58337C18.4167 11.4862 17.2084 13.0035 15.5417 14.1355C13.875 15.2674 12.0278 15.8334 10 15.8334ZM10 14.1667C11.5695 14.1667 13.0105 13.7535 14.323 12.9271C15.6355 12.1007 16.6389 10.9862 17.3334 9.58337C16.6389 8.1806 15.6355 7.06601 14.323 6.23962C13.0105 5.41324 11.5695 5.00004 10 5.00004C8.4306 5.00004 6.98962 5.41324 5.67712 6.23962C4.36462 7.06601 3.36115 8.1806 2.66671 9.58337C3.36115 10.9862 4.36462 12.1007 5.67712 12.9271C6.98962 13.7535 8.4306 14.1667 10 14.1667Z" fill="#E3E3E3"/>
</svg>
