<svg width="20" height="20" viewBox="0 0 20 20" fill="none" xmlns="http://www.w3.org/2000/svg">
<path d="M9.66667 18.6667C9.20833 18.6667 8.81597 18.5035 8.48958 18.1771C8.16319 17.8507 8 17.4583 8 17H11.3333C11.3333 17.4583 11.1701 17.8507 10.8438 18.1771C10.5174 18.5035 10.125 18.6667 9.66667 18.6667ZM3 16.1667V14.5H4.66667V8.66667C4.66667 7.51389 5.01389 6.48958 5.70833 5.59375C6.40278 4.69792 7.30556 4.11111 8.41667 3.83333V3.25C8.41667 2.90278 8.53819 2.60764 8.78125 2.36458C9.02431 2.12153 9.31944 2 9.66667 2C10.0139 2 10.309 2.12153 10.5521 2.36458C10.7951 2.60764 10.9167 3.48611 10.9167 3.83333C13.7784 5.02934 14.4538 6.37604 14.6667 9.5C14.5139 9.80556 13.4167 9.91667 13 9.08333C13 7 11.3333 5.60417 10.5 5.4375C10.3611 5.40972 10.2257 5.38542 10.0937 5.36458C9.96181 5.34375 9.81944 5.33333 9.66667 5.33333C8.75 5.33333 7.96528 5.65972 7.3125 6.3125C6.65972 6.96528 6.33333 7.75 6.33333 8.66667V14.5H13V9.14583C13.25 9.25694 13.5174 9.34375 13.8021 9.40625C14.0868 9.46875 14.375 9.5 14.6667 9.5V14.5H16.3333V16.1667H3Z" fill="#E0E1DD"/>
</svg>
