<svg width="51" height="39" viewBox="0 0 51 39" fill="none" xmlns="http://www.w3.org/2000/svg">
<path d="M6.66933 25.8965C4.29686 32.6059 13.0269 37.8776 18.0567 33.5644C18.0568 38.836 27.5463 37.3983 28.9697 33.5644M6.66933 25.8965C-1.39671 22.5418 1.92545 10.0794 9.5166 14.8739M6.66933 25.8965C10.9295 26.9485 11.8885 26.3757 13.7864 24.938M22.5167 3.84938C16.823 -0.943102 8.75687 5.76636 11.6036 10.0794L19.1953 18.2265C27.4387 24.3978 38.2151 26.9883 47 25.8965M22.5167 3.84938C29.6339 -1.90159 41.3067 7.20598 34.1895 11.5192M22.5167 3.84938C25.2801 7.39051 25.6882 7.58359 24.2249 11.5192M47 25.8965C41.7806 22.5418 38.0885 21.2104 37.0359 16.7908M47 25.8965C39.3798 28.2343 35.5654 29.8557 34.1895 32.6059" stroke="white" stroke-width="3" stroke-linecap="round"/>
</svg>
